<?xml version="1.0" encoding="UTF-8"?>
<svg width="680px" height="469px" viewBox="0 0 680 469" version="1.1" xmlns="http://www.w3.org/2000/svg" xmlns:xlink="http://www.w3.org/1999/xlink">
    <!-- Generator: Sketch 51.3 (57544) - http://www.bohemiancoding.com/sketch -->
    <title>pizza_image</title>
    <desc>Created with Sketch.</desc>
    <defs>
        <polygon id="path-1" points="326.03125 0 663.28125 150.980469 0 440.886719"></polygon>
    </defs>
    <g id="pizza_image" stroke="none" stroke-width="1" fill="none" fill-rule="evenodd">
        <g id="pizza-copy" transform="translate(8.000000, 8.000000)">
            <polygon id="offset_base" fill="#FFE700" points="326.03125 20 663.28125 170.980469 0 460.886719"></polygon>
            <mask id="mask-2" fill="white">
                <use xlink:href="#path-1"></use>
            </mask>
            <g id="Mask"></g>
            <g id="fill" mask="url(#mask-2)" fill="#F4364C">
                <g transform="translate(42.000000, 64.000000)">
                    <circle id="Oval" cx="303" cy="39" r="39"></circle>
                    <circle id="Oval-Copy" cx="170" cy="133" r="39"></circle>
                    <circle id="Oval-Copy-4" cx="303" cy="156" r="39"></circle>
                    <circle id="Oval-Copy-2" cx="488" cy="147" r="39"></circle>
                    <circle id="Oval-Copy-3" cx="180" cy="286" r="39"></circle>
                    <circle id="Oval-Copy-5" cx="39" cy="268" r="39"></circle>
                </g>
            </g>
            <g id="stroke" mask="url(#mask-2)" stroke="#000000" stroke-width="16">
                <g transform="translate(52.000000, 54.000000)">
                    <circle id="Oval" cx="303" cy="39" r="39"></circle>
                    <circle id="Oval-Copy" cx="170" cy="133" r="39"></circle>
                    <circle id="Oval-Copy-4" cx="303" cy="156" r="39"></circle>
                    <circle id="Oval-Copy-2" cx="488" cy="147" r="39"></circle>
                    <circle id="Oval-Copy-3" cx="180" cy="286" r="39"></circle>
                    <circle id="Oval-Copy-5" cx="39" cy="268" r="39"></circle>
                </g>
            </g>
            <polygon id="black_stroke" stroke="#000000" stroke-width="16" stroke-linecap="round" stroke-linejoin="round" points="326.03125 0 663.28125 150.980469 0 440.886719"></polygon>
        </g>
    </g>
</svg>